<?xml version="1.0" standalone="no"?>
<!DOCTYPE svg PUBLIC "-//W3C//DTD SVG 20010904//EN"
 "http://www.w3.org/TR/2001/REC-SVG-20010904/DTD/svg10.dtd">
<svg version="1.0" xmlns="http://www.w3.org/2000/svg"
 width="50.000000pt" height="50.000000pt" viewBox="0 0 50.000000 50.000000"
 preserveAspectRatio="xMidYMid meet">

<g transform="translate(0.000000,50.000000) scale(0.100000,-0.100000)"
fill="#000000" stroke="none">
<path d="M170 475 c0 -25 1 -25 80 -25 79 0 80 0 80 25 0 25 -1 25 -80 25 -79
0 -80 0 -80 -25z"/>
<path d="M56 404 c-17 -44 -16 -44 194 -44 210 0 211 0 194 44 -5 14 -32 16
-194 16 -162 0 -189 -2 -194 -16z"/>
<path d="M94 183 c4 -82 9 -156 12 -165 5 -16 21 -18 143 -18 l138 0 6 37 c3
21 9 95 13 166 l7 127 -163 0 -163 0 7 -147z m121 85 c3 -13 5 -63 3 -113 -2
-72 -6 -90 -18 -90 -12 0 -16 18 -18 90 -3 95 2 135 18 135 5 0 12 -10 15 -22z
m100 0 c3 -13 5 -63 3 -113 -2 -72 -6 -90 -18 -90 -12 0 -16 18 -18 90 -3 95
2 135 18 135 5 0 12 -10 15 -22z"/>
</g>
</svg>
